<?xml version="1.0" encoding="UTF-8"?>
<svg version="1.1" xmlns="http://www.w3.org/2000/svg" width="604" height="216">
<path d="M0 0 C199.32 0 398.64 0 604 0 C604 71.28 604 142.56 604 216 C404.68 216 205.36 216 0 216 C0 144.72 0 73.44 0 0 Z " fill="#FEFEFE" transform="translate(0,0)"/>
<path d="M0 0 C7.64801639 6.39034258 13.48320834 13.84586921 14.44750977 23.96533203 C15.40290907 37.28776253 13.70368204 46.34434267 5.625 57.21875 C0.04021796 63.43908835 -8.52847737 68.36979416 -16.89794922 69.24023438 C-30.86619559 69.95370562 -40.66859521 69.09982811 -51.96875 60.2734375 C-53.75858334 58.61717381 -55.25173172 56.94604566 -56.73828125 55.015625 C-57.44017578 54.10876953 -57.44017578 54.10876953 -58.15625 53.18359375 C-63.8752735 44.94887076 -65.94238565 34.90843732 -64.73828125 25.015625 C-62.28838188 13.65567493 -56.25323013 4.6985013 -46.73828125 -1.984375 C-32.6623007 -10.38151827 -13.19824377 -9.56449049 0 0 Z " fill="#595A5C" transform="translate(524.73828125,142.984375)"/>
<path d="M0 0 C18 0 18 0 21.875 3.75 C22.9500715 5.81629342 23.98421102 7.90392749 25 10 C26.54922293 12.63933849 28.14585267 15.24686291 29.74462891 17.85644531 C32.20469333 21.87968307 34.60211734 25.93949868 37 30 C39.76961137 26.65612714 42.155534 23.27600354 44.3828125 19.55078125 C45.29740234 18.03194336 45.29740234 18.03194336 46.23046875 16.48242188 C46.85566406 15.43634766 47.48085938 14.39027344 48.125 13.3125 C49.37497837 11.22368686 50.6274614 9.13636987 51.8828125 7.05078125 C52.43340332 6.12950439 52.98399414 5.20822754 53.55126953 4.2590332 C55 2 55 2 57 0 C62.94 0 68.88 0 75 0 C75 24.42 75 48.84 75 74 C69.39 74 63.78 74 58 74 C57.67 59.15 57.34 44.3 57 29 C50.82966253 38.20983756 50.82966253 38.20983756 44.67431641 47.4296875 C43.90060937 48.57849175 43.12639319 49.72695332 42.3515625 50.875 C41.95155029 51.47957031 41.55153809 52.08414063 41.1394043 52.70703125 C40.14440069 54.17427168 39.07884179 55.59325658 38 57 C37.34 57 36.68 57 36 57 C34.38883088 54.65481999 32.89841654 52.31210502 31.4375 49.875 C26.74973753 42.16212973 21.88551114 34.59968399 17 27 C16.67 42.51 16.34 58.02 16 74 C10.72 74 5.44 74 0 74 C0 49.58 0 25.16 0 0 Z " fill="#5A5B5D" transform="translate(371,137)"/>
<path d="M0 0 C3.04979447 1.46367873 5.10885636 3.18915125 7 6 C7.37890625 8.19140625 7.37890625 8.19140625 7.5625 10.5 C7.74775527 12.87073155 7.74775527 12.87073155 9 15 C13.46729495 17.64788755 18.08485848 19.36375837 23 21 C23.94875 20.195625 24.8975 19.39125 25.875 18.5625 C29.99727591 15.06752695 32.93442867 14.53524385 38.32421875 14.58984375 C42.91859868 15.29409177 45.84587287 17.70215965 49 21 C51.73228332 24.92765727 52.54398971 28.34282814 52.35546875 33.046875 C51.34622133 38.59219051 46.6892234 43.07912615 42.25 46.25 C38.0919525 47.63601583 34.04753595 47.84615521 29.99609375 46.171875 C27.3623607 44.69830411 25.13522857 43.13522857 23 41 C18.01662989 41.30202243 13.45612062 43.91271038 9 46 C9 48.31 9 50.62 9 53 C11.38701843 54.37216028 13.78255054 55.72243979 16.1875 57.0625 C16.86103516 57.45244141 17.53457031 57.84238281 18.22851562 58.24414062 C22.2396296 60.50662186 22.2396296 60.50662186 26.73828125 60.76953125 C27.48464844 60.51558594 28.23101562 60.26164062 29 60 C33.50475194 59.4027791 36.13109295 59.42072864 40 62 C42.23328541 65.34992811 42.72767612 67.15867486 42.5078125 71.1015625 C42 73 42 73 39.5 75.375 C36.65869258 78.35837279 36.63683773 78.94487279 36.625 82.875 C36.83299543 86.96149842 37.29917133 90.97023517 38 95 C40.95146349 95.87083817 42.47119613 96.223995 45.3515625 95.00390625 C46.10179687 94.52824219 46.85203125 94.05257812 47.625 93.5625 C51.71662125 91 51.71662125 91 55 91 C54.896875 89.948125 54.79375 88.89625 54.6875 87.8125 C55 84 55 84 57.375 81.0625 C60 79 60 79 62 79 C62 72.73 62 66.46 62 60 C60.68 59.34 59.36 58.68 58 58 C57.64 52.6 57.64 52.6 59.125 50.125 C61.88090884 48.47145469 63.85075452 48.60634432 67 49 C68.9375 50.0625 68.9375 50.0625 70 52 C69.55555556 58.44444444 69.55555556 58.44444444 68 60 C67.84379445 61.41327947 67.74943827 62.8335459 67.68359375 64.25390625 C67.64169922 65.10791016 67.59980469 65.96191406 67.55664062 66.84179688 C67.51732422 67.73962891 67.47800781 68.63746094 67.4375 69.5625 C67.37272461 70.91504883 67.37272461 70.91504883 67.30664062 72.29492188 C67.20021858 74.52978485 67.09820012 76.76476308 67 79 C67.62261719 79.29648438 68.24523437 79.59296875 68.88671875 79.8984375 C71.59028333 81.30768928 72.62737203 82.25474406 74 85 C74 89.68899014 73.92192658 91.88251324 70.9375 95.5 C66.46650459 97.78306149 62.37385191 97.65749199 57.57421875 96.328125 C54.22941136 95.90177626 52.72748648 96.81022313 49.8125 98.4375 C45.15531335 101 45.15531335 101 43 101 C42.896875 102.093125 42.79375 103.18625 42.6875 104.3125 C42 108 42 108 40.9375 109.9375 C37.73239318 111.69513922 34.5056583 111.61366654 31 111 C28.5 109.5 28.5 109.5 27 107 C26.36502805 103.37263149 26.21395911 100.14333221 28.375 97 C30 96 30 96 32 96 C31.835 94.700625 31.67 93.40125 31.5 92.0625 C30.9684362 87.34580713 30.92470459 82.74361065 31 78 C30.06414062 77.80277344 30.06414062 77.80277344 29.109375 77.6015625 C27 77 27 77 25.25 75.375 C23.56245198 72.16865877 23.79423953 69.56651486 24 66 C23.236875 65.79375 22.47375 65.5875 21.6875 65.375 C17.31775367 63.74560306 13.55880593 61.47288429 9.5859375 59.046875 C7.07681907 57.70308974 7.07681907 57.70308974 4.7734375 58.7578125 C4.18820313 59.16773438 3.60296875 59.57765625 3 60 C-0.15774686 62.02998013 -3.13646594 62.53138641 -6.8984375 62.4609375 C-10.78707725 61.60803882 -13.40645355 58.90176501 -16 56 C-17.75845645 52.48308711 -17.68065337 48.82789463 -17 45 C-14.96994709 41.6207427 -12.55205232 38.77602616 -9 37 C-3.54712308 36.6424343 -0.53017508 36.66898891 4 40 C4.66 40.33 5.32 40.66 6 41 C8.60092402 39.99866601 8.60092402 39.99866601 11.4375 38.5625 C16.68119891 36 16.68119891 36 20 36 C20 32.37 20 28.74 20 25 C18.35 24.67 16.7 24.34 15 24 C14.01 23.46375 13.02 22.9275 12 22.375 C8.55767655 20.79726842 7.51148822 20.77097912 4 22 C3.030625 22.515625 2.06125 23.03125 1.0625 23.5625 C-2.39603261 25.18589286 -4.22995697 25.54979794 -8 25 C-11.76115969 22.93504958 -15.09650288 20.91274408 -17 17 C-17.74432493 12.19405015 -17.47327727 8.89759482 -15.1875 4.5625 C-10.74594658 -0.64046258 -6.49985892 -1.09315809 0 0 Z " fill="#8D90BD" transform="translate(170,13)"/>
<path d="M0 0 C34.47107438 0 34.47107438 0 45.015625 9.890625 C52.16592988 17.52162265 53.56847197 24.15364031 53.26953125 34.5390625 C52.47211429 44.77835849 48.81799184 51.22680892 41 58 C27.81166851 66.51868523 16.87942301 64 0 64 C0 42.88 0 21.76 0 0 Z " fill="#FDFDFD" transform="translate(252,142)"/>
<path d="M0 0 C2.99290689 2.55492052 3.82667568 4.09486189 4.5625 7.9375 C3.76884408 12.25851556 2.29420787 14.11756811 -1 17 C-4.86194659 17.78891905 -8.26790592 17.24403136 -12 16 C-16.57493834 17.98431061 -20.45314595 20.49116736 -24 24 C-24.70922726 27.05182641 -24.53232957 29.34711965 -24.171875 32.4453125 C-24 35 -24 35 -25.75 38.5 C-27.74875029 40.72083366 -29.42045929 42.50220217 -32 44 C-32.99 44 -33.98 44 -35 44 C-34.505 51.92 -34.505 51.92 -34 60 C-32.35 60.66 -30.7 61.32 -29 62 C-26.39926911 65.03418604 -25.9919013 66.53837419 -26.0625 70.5625 C-27.10368769 74.38018818 -27.75124746 75.77716931 -31 78 C-34.375 79.0625 -34.375 79.0625 -38 79 C-41.375 77 -41.375 77 -44 74 C-44.875 70.1875 -44.875 70.1875 -45 67 C-45.60328125 66.80664062 -46.2065625 66.61328125 -46.828125 66.4140625 C-47.62734375 66.15367188 -48.4265625 65.89328125 -49.25 65.625 C-50.43335938 65.24214844 -50.43335938 65.24214844 -51.640625 64.8515625 C-54 64 -54 64 -55.984375 62.8359375 C-58.6394991 61.73478138 -60.28229736 62.2450826 -63 63 C-63.10812003 65.75105422 -63.18734945 68.49785087 -63.25 71.25 C-63.28351562 72.02730469 -63.31703125 72.80460937 -63.3515625 73.60546875 C-63.49114981 78.3833021 -63.49114981 78.3833021 -61.05078125 82.3671875 C-60.37402344 82.90601562 -59.69726562 83.44484375 -59 84 C-57.9375 86.875 -57.9375 86.875 -58 90 C-60 93.375 -60 93.375 -63 96 C-66.5 96.6875 -66.5 96.6875 -70 96 C-73.38121991 93.55401113 -74.76936783 92.10703441 -75.625 88 C-75 85 -75 85 -72.5 82.83984375 C-69.14625097 79.03019446 -69.24713595 76.46821728 -69.375 71.5625 C-69.35566406 70.82451172 -69.33632812 70.08652344 -69.31640625 69.32617188 C-69.36822028 63.49709365 -71.09179273 61.21789089 -75 57 C-75.07257317 53.37134149 -74.41961284 51.63781152 -72.4375 48.625 C-69.43010278 46.62006852 -67.4606715 46.4211183 -63.90234375 46.61328125 C-60.89362731 47.22490944 -59.69096929 48.49736544 -58 51 C-57.89751953 52.20462891 -57.89751953 52.20462891 -57.79296875 53.43359375 C-57.20965662 56.28099747 -57.20965662 56.28099747 -54.234375 57.8359375 C-53.08453125 58.34382813 -51.9346875 58.85171875 -50.75 59.375 C-49.61046875 59.89835937 -48.4709375 60.42171875 -47.296875 60.9609375 C-43.75440059 62.36843981 -43.75440059 62.36843981 -39 61 C-39 55.72 -39 50.44 -39 45 C-41.97 44.505 -41.97 44.505 -45 44 C-49.64174055 41.19336618 -51.45084871 38.16383765 -53 33 C-53.41948447 28.04423003 -52.2347101 24.8644871 -49.0625 21.0625 C-46.64317466 18.45295743 -45.19848324 17.08180124 -41.5390625 16.83203125 C-40.57742187 16.82558594 -39.61578125 16.81914062 -38.625 16.8125 C-37.66851562 16.79832031 -36.71203125 16.78414062 -35.7265625 16.76953125 C-33 17 -33 17 -30.8984375 18.07421875 C-29.05545032 19.1766925 -29.05545032 19.1766925 -27.0390625 18.81640625 C-24.54931051 17.81955153 -22.56349131 16.48554653 -20.375 14.9375 C-16.21411765 12 -16.21411765 12 -14 12 C-14.05800781 11.39671875 -14.11601563 10.7934375 -14.17578125 10.171875 C-14.53939101 3.73078782 -14.53939101 3.73078782 -12.0625 0.375 C-7.79517117 -1.54094356 -4.43752567 -1.42398212 0 0 Z " fill="#F37A46" transform="translate(78,13)"/>
<path d="M0 0 C3.5625 0.9375 3.5625 0.9375 6.0625 3.125 C7.5625 5.9375 7.5625 5.9375 7.625 9 C6.31554402 12.62026066 4.780553 13.89678346 1.5625 15.9375 C0.9025 15.9375 0.2425 15.9375 -0.4375 15.9375 C-0.61925781 16.89849609 -0.61925781 16.89849609 -0.8046875 17.87890625 C-1.79429227 22.98678933 -2.92260951 27.96000269 -4.4375 32.9375 C-3.839375 33.185 -3.24125 33.4325 -2.625 33.6875 C-0.05450421 35.15635474 0.9980158 36.43256744 2.5625 38.9375 C3.45736349 43.82297094 3.05521949 47.89520878 0.9375 52.375 C-2.25700375 55.82170142 -4.8324226 57.78561386 -9.6484375 58.06640625 C-13.92746769 57.83184147 -15.97349048 57.31265664 -19.375 54.5625 C-22.88531435 50.09482719 -23.88947639 47.78103184 -23.75390625 42.22265625 C-23.26014187 38.65658019 -21.7874466 36.60500695 -19.4375 33.9375 C-16.14779758 31.49131102 -13.42088664 30.66235667 -9.4375 29.9375 C-8.90335888 28.04537298 -8.38571671 26.14858364 -7.875 24.25 C-7.58496094 23.19425781 -7.29492188 22.13851563 -6.99609375 21.05078125 C-6.18403078 17.61794984 -6.18403078 17.61794984 -7.4375 12.9375 C-12.3875 12.6075 -17.3375 12.2775 -22.4375 11.9375 C-23.0975 13.2575 -23.7575 14.5775 -24.4375 15.9375 C-27.66541555 18.0894437 -28.72150809 18.13836443 -32.4375 17.9375 C-32.77007812 19.12472656 -32.77007812 19.12472656 -33.109375 20.3359375 C-35.16788814 25.91814079 -38.20223946 30.97119438 -41.15625 36.125 C-41.60484375 36.94226562 -42.0534375 37.75953125 -42.515625 38.6015625 C-42.93231445 39.33842285 -43.34900391 40.0752832 -43.77832031 40.83447266 C-44.67309316 42.94458138 -44.67309316 42.94458138 -43.68261719 45.02099609 C-42.61282713 46.66763372 -41.52672926 48.30365611 -40.4375 49.9375 C-39.69768886 54.93552641 -39.91946767 58.90143533 -42.1875 63.4375 C-44.98462398 66.54541553 -46.90047073 67.7405037 -51.05859375 68.2734375 C-58.66498815 68.37893534 -58.66498815 68.37893534 -62.5 66.1875 C-66.26634749 61.81367711 -66.98707485 58.17159972 -66.89453125 52.484375 C-66.13835192 48.27045256 -63.7340961 45.56033924 -60.4375 42.9375 C-57.68671116 42.02057039 -56.07801087 41.82863917 -53.25 41.875 C-51.991875 41.895625 -50.73375 41.91625 -49.4375 41.9375 C-49.15737061 41.20990479 -48.87724121 40.48230957 -48.58862305 39.73266602 C-47.51926122 37.13603323 -46.32918028 34.69704706 -45.01953125 32.21484375 C-44.57029297 31.34666016 -44.12105469 30.47847656 -43.65820312 29.58398438 C-42.71530112 27.7701077 -41.7646976 25.96021482 -40.80664062 24.15429688 C-40.36126953 23.28740234 -39.91589844 22.42050781 -39.45703125 21.52734375 C-39.04557861 20.74222412 -38.63412598 19.95710449 -38.21020508 19.14819336 C-37.30245198 16.55113038 -37.58045232 15.50151449 -38.4375 12.9375 C-38.77974015 9.10441031 -38.97800648 6.81582303 -36.9375 3.5 C-33.92513856 1.6172741 -31.9217503 1.46069141 -28.4375 1.40625 C-26.4375 1.9375 -26.4375 1.9375 -24.640625 3.921875 C-21.57385095 6.727647 -19.28080207 6.53589622 -15.1875 6.6875 C-13.29257813 6.77257812 -13.29257813 6.77257812 -11.359375 6.859375 C-10.39515625 6.88515625 -9.4309375 6.9109375 -8.4375 6.9375 C-8.169375 6.15375 -7.90125 5.37 -7.625 4.5625 C-5.83163774 0.59822553 -4.3000278 -0.07818232 0 0 Z " fill="#E66A6D" transform="translate(135.4375,4.0625)"/>
<path d="M0 0 C3.5386994 1.65139305 4.81070153 2.71605229 7 6 C7.45745203 10.94048196 7.21323826 14.12195382 4 18 C2.35392624 18.71600518 0.68802699 19.38943705 -1 20 C-0.91291962 22.10494301 -0.80474307 24.20902142 -0.6875 26.3125 C-0.62949219 27.48425781 -0.57148437 28.65601563 -0.51171875 29.86328125 C0.03541087 33.21706052 0.50407809 33.90056568 3 36 C3.226875 36.94875 3.45375 37.8975 3.6875 38.875 C5.32540876 42.77478277 7.10235951 44.09705483 10.70703125 46.171875 C13.99711528 47.36011659 16.55930839 46.95519146 19.921875 46.19921875 C22.52890405 45.94929679 23.74027136 46.76230631 26 48 C30.13743286 47.67336056 33.59193001 46.34778155 37 44 C37.70806 41.99525181 38.06896177 40.02843454 38.46484375 37.94140625 C39 36 39 36 41.125 33.5 C44.87936277 31.54120203 47.84759388 31.14435268 52 32 C54.8100346 33.79363911 56.50940468 35.01880935 58 38 C58.3885634 42.11877201 58.45820463 44.28899282 56.1875 47.8125 C53.47473978 50.52526022 51.88097761 51.9265852 48 52.25 C45 52 45 52 42 50 C37.45823702 50.3027842 33.76570315 51.43247513 30 54 C29.2833793 56.31847874 28.61757973 58.65319703 28 61 C26.75863281 61.73669922 26.75863281 61.73669922 25.4921875 62.48828125 C21.46527742 66.54675019 22.21748082 71.25351701 22.1875 76.75 C22.16236328 77.82894531 22.13722656 78.90789062 22.11132812 80.01953125 C22.05246701 82.68005377 22.0161796 85.33893151 22 88 C22.93392578 88.44279297 22.93392578 88.44279297 23.88671875 88.89453125 C26.55227052 90.28889567 27.62018306 91.31298807 29 94 C29 98.19297612 28.65144998 100.25274855 25.875 103.4375 C22.17395439 105.44893783 20.153141 105.74163232 16 105 C13 102.4375 13 102.4375 11 99 C10.92823061 94.83737538 11.34197325 92.8278401 13.9375 89.5625 C16 88 16 88 18 88 C18 80.41 18 72.82 18 65 C16.35 64.34 14.7 63.68 13 63 C11.1875 60.75 11.1875 60.75 10 58 C10.185625 56.5459375 10.185625 56.5459375 10.375 55.0625 C10.32036835 51.94760598 10.32036835 51.94760598 8.21875 50.28515625 C3.54276384 46.97299938 0.75009844 45.86931594 -5 46 C-8.08300388 43.65423618 -9.76509156 42.2332693 -10.5 38.375 C-10 36 -10 36 -8.51171875 34.76953125 C-6.25057633 32.12276764 -6.48183912 29.73315019 -6.3125 26.3125 C-6.24675781 25.13300781 -6.18101563 23.95351562 -6.11328125 22.73828125 C-6.07589844 21.83464844 -6.03851563 20.93101563 -6 20 C-10.08813125 18.60631889 -12.03199662 18.58443677 -16.06640625 20.31640625 C-23.24208845 24.13872866 -23.24208845 24.13872866 -27 31 C-29 33 -29 33 -31.9375 33.375 C-35 33 -35 33 -36.9375 31.3125 C-38.2972698 28.35300101 -38.09161147 27.04091767 -37 24 C-35.8125 22.1875 -35.8125 22.1875 -34 21 C-33.11183594 21.04769531 -32.22367188 21.09539062 -31.30859375 21.14453125 C-27.15039425 20.96288617 -24.83107766 19.57933542 -21.25 17.5 C-15.16666667 14 -15.16666667 14 -13 14 C-13.06960937 13.40832031 -13.13921875 12.81664063 -13.2109375 12.20703125 C-13.53191506 7.52228741 -13.55967001 5.66887392 -10.4375 1.9375 C-6.4689849 -0.29929942 -4.48262803 -0.65201862 0 0 Z " fill="#6C6AB0" transform="translate(44,106)"/>
<path d="M0 0 C4.94708701 3.67887191 9.52435524 8.78229432 10.5625 15 C11.20497211 22.45267643 11.73207372 29.2039563 7.05859375 35.38671875 C2.87845152 39.89428726 -1.32346522 43.5966879 -7.57421875 44.40625 C-14.65973743 44.5933264 -19.88733575 44.4358105 -25.52734375 39.87109375 C-26.15769531 39.25363281 -26.78804688 38.63617188 -27.4375 38 C-28.36755859 37.08927734 -28.36755859 37.08927734 -29.31640625 36.16015625 C-34.10105291 30.37639543 -34.39841304 23.96381916 -33.953125 16.75390625 C-32.9001581 9.08798814 -28.9160664 4.98760709 -23.18359375 0.12890625 C-17.02709331 -3.85147099 -6.200722 -3.57411055 0 0 Z " fill="#FDFDFD" transform="translate(511.4375,153)"/>
<path d="M0 0 C5.61 0 11.22 0 17 0 C17.07449699 7.36488669 17.12876647 14.72955102 17.16479492 22.09472656 C17.17982434 24.59704411 17.2002535 27.09933557 17.22631836 29.6015625 C17.26295878 33.21100325 17.27978546 36.82009383 17.29296875 40.4296875 C17.30845261 41.53738495 17.32393646 42.6450824 17.33988953 43.78634644 C17.34199361 53.63244993 15.98823692 62.09232637 8.921875 69.3046875 C2.18656 75.24600195 -4.47626197 75.67926717 -13.21875 75.31640625 C-20.79368441 74.68255327 -27.76107092 71.69872871 -33 66 C-33 61.21861363 -32.16772988 60.615713 -29 57.25 C-28.2575 56.45078125 -27.515 55.6515625 -26.75 54.828125 C-26.1725 54.22484375 -25.595 53.6215625 -25 53 C-22.45655832 54.20650438 -20.50515319 55.38238162 -18.25 57.125 C-13.98132165 59.58769905 -11.87202497 59.47148629 -7 59 C-4.32673405 58.15581075 -3.38727434 57.62502798 -1.91836548 55.2543335 C-0.83396948 52.59244096 -0.72218031 50.55262168 -0.68115234 47.68066406 C-0.66128265 46.61986633 -0.64141296 45.5590686 -0.62094116 44.46612549 C-0.60938995 43.32746033 -0.59783875 42.18879517 -0.5859375 41.015625 C-0.56657135 39.84489441 -0.5472052 38.67416382 -0.5272522 37.46795654 C-0.46747293 33.72871181 -0.421077 29.98943626 -0.375 26.25 C-0.33681876 23.71483032 -0.29776695 21.1796736 -0.2578125 18.64453125 C-0.16177248 12.42979269 -0.07773482 6.2149934 0 0 Z " fill="#5A5B5D" transform="translate(581,137)"/>
<path d="M0 0 C4.03745858 2.87382423 6.86398162 6.71403541 8.7890625 11.2734375 C9.6394308 17.08758354 9.10723512 22.31068086 6.19921875 27.44921875 C2.97995394 31.61375245 -1.2408581 34.61674437 -6.2109375 36.2734375 C-7.93889102 36.34146717 -9.66929115 36.35839395 -11.3984375 36.3359375 C-12.29949219 36.32691406 -13.20054687 36.31789062 -14.12890625 36.30859375 C-14.81597656 36.29699219 -15.50304687 36.28539062 -16.2109375 36.2734375 C-18.73854118 42.36676781 -19.46067084 47.30303736 -18.92578125 53.890625 C-19.2109375 56.2734375 -19.2109375 56.2734375 -21.0546875 58.1015625 C-23.2109375 59.2734375 -23.2109375 59.2734375 -25.7734375 59.1484375 C-28.42718007 58.19581196 -29.62946027 57.60403552 -31.2109375 55.2734375 C-31.7734375 52.8984375 -31.7734375 52.8984375 -31.2109375 50.2734375 C-29.7763655 49.1724869 -28.33837105 48.07554447 -26.87890625 47.0078125 C-23.32600725 43.31346319 -21.92297975 38.02321844 -20.2109375 33.2734375 C-20.81550781 33.00273438 -21.42007813 32.73203125 -22.04296875 32.453125 C-25.61335986 30.51031758 -28.53674201 27.3002642 -29.83203125 23.40625 C-30.91768937 17.29522592 -31.30158812 11.32934064 -28.0859375 5.8359375 C-21.35863284 -3.4641324 -9.85233793 -5.53458027 0 0 Z " fill="#A84F9E" transform="translate(176.2109375,93.7265625)"/>
<path d="M0 0 C42.72661871 0 42.72661871 0 53.75 10.125 C61.55619642 18.54163358 64.33620177 27.36468228 64.2109375 38.55078125 C63.56102907 49.17798755 59.58619348 57.98673576 51.75 65.25 C36.24344378 77.56604797 20.14371145 74 0 74 C0 49.58 0 25.16 0 0 Z M5 5 C5 26.12 5 47.24 5 69 C30.69803234 70.05742514 30.69803234 70.05742514 50.72265625 58.40625 C56.88829118 51.9830824 58.14749697 44.61888106 58.4375 35.9375 C58.19603138 26.65101923 55.21914652 20.52342884 48.9140625 13.7890625 C36.51110197 2.19609123 21.82006154 5 5 5 Z " fill="#5B5C5E" transform="translate(247,137)"/>
<path d="M0 0 C3.16026686 2.16717272 6.12256877 4.47070242 9 7 C8.01 8.32 7.02 9.64 6 11 C2.51246956 9.32225707 -0.66498612 7.32979036 -3.90234375 5.21875 C-11.72684355 0.6726719 -20.99881142 1.06761194 -29.765625 2.4296875 C-37.82757632 4.71296742 -43.27989272 10.18354401 -47.5 17.25 C-51.54348813 26.01089095 -51.52593453 36.62498464 -49.296875 45.9375 C-48.38392999 48.16570477 -47.35035072 50.01023086 -46 52 C-45.36384766 53.05380859 -45.36384766 53.05380859 -44.71484375 54.12890625 C-40.84805851 59.97755356 -35.82993857 63.3725207 -29.203125 65.60546875 C-19.05358341 67.4230285 -9.64686215 66.87034678 -1 61 C-0.28714844 60.52304688 0.42570312 60.04609375 1.16015625 59.5546875 C2.8031986 58.41141747 4.4070192 57.21205061 6 56 C6.99 57.32 7.98 58.64 9 60 C0.35069275 68.59974102 -7.72938714 72.47820514 -19.9375 72.6875 C-28.46983405 72.61244011 -34.91459377 70.9873005 -42 66 C-43.04027344 65.29810547 -43.04027344 65.29810547 -44.1015625 64.58203125 C-48.88929611 60.94539104 -51.52070399 56.40359386 -54 51 C-54.32097656 50.34644531 -54.64195312 49.69289062 -54.97265625 49.01953125 C-58.59001787 40.32103843 -58.63264025 28.24266989 -55.375 19.4375 C-50.75811769 9.91316237 -42.9621778 0.6858923 -32.94140625 -3.33984375 C-22.33541346 -5.72020601 -9.56759255 -5.45148541 0 0 Z " fill="#5F6062" transform="translate(222,140)"/>
<path d="M0 0 C2.99028679 1.99352453 4.57809415 3.40255495 5.51171875 6.9375 C5.83558239 10.7375 5.83558239 10.7375 5 13 C4.01386719 13.70511719 3.02773437 14.41023437 2.01171875 15.13671875 C-0.07985376 16.7603536 -0.89051638 17.59316417 -1.58618164 20.17822266 C-1.81287791 22.73697763 -1.88266178 25.24388921 -1.875 27.8125 C-1.895625 28.69615234 -1.91625 29.57980469 -1.9375 30.49023438 C-1.98440843 32.6597492 -1.99574089 34.8299823 -2 37 C-1.071875 37.433125 -1.071875 37.433125 -0.125 37.875 C2 39 2 39 4 41 C4.67039106 47.9273743 4.67039106 47.9273743 2.4375 51.5 C-0.86721204 53.53366895 -3.18453778 53.3468602 -7 53 C-8.485 52.505 -8.485 52.505 -10 52 C-12.45346674 53.23402667 -14.7320459 54.50319203 -17.0625 55.9375 C-23.77003339 60 -23.77003339 60 -26 60 C-26.12375 60.78375 -26.2475 61.5675 -26.375 62.375 C-27 65 -27 65 -29 67 C-32.10347254 67.33015665 -34.15781176 67.50531294 -36.875 65.875 C-38.52854531 63.11909116 -38.39365568 61.14924548 -38 58 C-36.71875 56.29296875 -36.71875 56.29296875 -35 55 C-33.72125 55.103125 -32.4425 55.20625 -31.125 55.3125 C-24.26411765 55.5611646 -17.96998843 51.44232825 -13 47 C-11.66090315 43.43776055 -11.66090315 43.43776055 -11 40 C-9.5 38.0625 -9.5 38.0625 -8 37 C-7.34 37 -6.68 37 -6 37 C-6.02285489 33.91503825 -6.10022381 30.83375874 -6.1875 27.75 C-6.19330078 26.87730469 -6.19910156 26.00460938 -6.20507812 25.10546875 C-6.31304737 19.71456793 -6.31304737 19.71456793 -9.48828125 15.515625 C-10.31714844 15.01546875 -11.14601563 14.5153125 -12 14 C-13.7470127 10.50597461 -12.85687311 6.71311682 -12 3 C-9.07519708 -0.86073985 -4.51325751 -0.92946293 0 0 Z " fill="#E25B77" transform="translate(127,119)"/>
<path d="M0 0 C2.125 0.375 2.125 0.375 4 1 C4.50812097 3.47432818 4.99089985 5.94377732 5.39453125 8.4375 C7.08291879 21.1928763 7.08291879 21.1928763 13 32 C12.625 34.625 12.625 34.625 12 37 C10.33388095 37.042721 8.66617115 37.04063832 7 37 C6 36 6 36 5.6875 32.25 C5.07306126 25.9110403 2.99949408 20.01708217 1 14 C-0.29935464 16.51712189 -1.58954372 19.03829087 -2.875 21.5625 C-3.23980469 22.26697266 -3.60460937 22.97144531 -3.98046875 23.69726562 C-6.19942197 28.07465515 -7.81066956 32.23641861 -9 37 C-10.65 37 -12.3 37 -14 37 C-14.75 34.8125 -14.75 34.8125 -15 32 C-14.43152344 31.30003906 -13.86304687 30.60007812 -13.27734375 29.87890625 C-10.38084482 26.21729439 -8.67535387 22.38195312 -6.8125 18.125 C-6.45736328 17.34769531 -6.10222656 16.57039063 -5.73632812 15.76953125 C-3.6819744 11.13066801 -2.64155156 7.06760927 -2 2 C-1.34 1.34 -0.68 0.68 0 0 Z " fill="#606163" transform="translate(102,78)"/>
<path d="M0 0 C1.42159033 0.1174868 2.83846585 0.29434602 4.25 0.5 C7.78123644 0.94983904 10.51981422 0.87004644 14 0 C14.33 0.33 14.66 0.66 15 1 C17.55429063 1.13806976 19.70445764 1.07599661 22.1875 0.4375 C24 0 24 0 26 1 C26.125 3.375 26.125 3.375 26 6 C25.34 6.66 24.68 7.32 24 8 C21.8359375 7.9765625 21.8359375 7.9765625 19.375 7.625 C18.55773437 7.51414062 17.74046875 7.40328125 16.8984375 7.2890625 C15.95871094 7.14597656 15.95871094 7.14597656 15 7 C15.00785522 8.17357056 15.00785522 8.17357056 15.01586914 9.37084961 C15.03657106 12.89305833 15.04963838 16.4152543 15.0625 19.9375 C15.07087891 21.16919922 15.07925781 22.40089844 15.08789062 23.66992188 C15.09272461 25.4246582 15.09272461 25.4246582 15.09765625 27.21484375 C15.10551147 28.84087524 15.10551147 28.84087524 15.11352539 30.49975586 C15 33 15 33 14 34 C12.33382885 34.04063832 10.66611905 34.042721 9 34 C8.61781233 32.34385343 8.28604898 30.67542976 8 29 C8.33 28.67 8.66 28.34 9 28 C9.08685603 26.43827255 9.10702219 24.87270656 9.09765625 23.30859375 C9.09443359 22.36435547 9.09121094 21.42011719 9.08789062 20.44726562 C9.07951172 19.45404297 9.07113281 18.46082031 9.0625 17.4375 C9.05798828 16.44041016 9.05347656 15.44332031 9.04882812 14.41601562 C9.03700007 11.94395151 9.02051849 9.47200482 9 7 C5.3624741 6.93696055 5.3624741 6.93696055 1.8125 7.625 C1.214375 7.74875 0.61625 7.8725 0 8 C-0.66 7.34 -1.32 6.68 -2 6 C-1.44444444 1.44444444 -1.44444444 1.44444444 0 0 Z " fill="#5E5F60" transform="translate(119,81)"/>
<path d="M0 0 C1.65 0.33 3.3 0.66 5 1 C5.625 2.875 5.625 2.875 6 5 C4 7 4 7 0.5 8.4375 C-3.19437242 9.71343494 -3.19437242 9.71343494 -5 13 C-1.98112756 16.48331435 0.56909529 17.79157144 5 19 C5.625 21.375 5.625 21.375 6 24 C4 26 4 26 0.625 27.25 C-2.61388354 28.54153827 -3.03338619 29.05007928 -5.125 32.1875 C-5.74375 33.115625 -6.3625 34.04375 -7 35 C-9.6875 35.4375 -9.6875 35.4375 -12 35 C-13 34 -13 34 -13.0625 31.4375 C-13.041875 30.633125 -13.02125 29.82875 -13 29 C-12.44570313 28.75765625 -11.89140625 28.5153125 -11.3203125 28.265625 C-10.59585938 27.93046875 -9.87140625 27.5953125 -9.125 27.25 C-8.04605469 26.76273438 -8.04605469 26.76273438 -6.9453125 26.265625 C-4.6629326 24.78070314 -3.99624102 23.49584592 -3 21 C-6.19990508 18.25722422 -9.00499382 16.3697164 -13 15 C-13 13.35 -13 11.7 -13 10 C-12.22076172 9.67128906 -12.22076172 9.67128906 -11.42578125 9.3359375 C-6.24059768 6.97816456 -3.34922495 4.60518431 0 0 Z " fill="#5E5F61" transform="translate(75,80)"/>
<path d="M0 0 C9.57 0 19.14 0 29 0 C29 1.98 29 3.96 29 6 C19.43 6 9.86 6 0 6 C0 4.02 0 2.04 0 0 Z " fill="#57585A" transform="translate(326,177)"/>
</svg>
